<?xml version="1.0" encoding="UTF-8"?>
<svg width="157px" height="46px" viewBox="0 0 157 46" version="1.1" xmlns="http://www.w3.org/2000/svg" xmlns:xlink="http://www.w3.org/1999/xlink">
    <defs></defs>
    <g id="Homepage" stroke="none" stroke-width="1" fill="none" fill-rule="evenodd">
        <g id="HOD-Homepage-1_1" transform="translate(-120.000000, -17.000000)">
            <g id="HEADER" transform="translate(120.000000, 17.000000)">
                <g id="logo">
                    <path d="M42.734401,4.67088039 C42.4661919,4.39751948 42.1212749,4.23886295 41.7645568,4.19973482 C41.6567368,4.18740678 41.5478439,4.18633477 41.4384145,4.19651881 C41.2474497,4.21367086 41.0570212,4.26619904 40.8794668,4.35303133 L18.8541348,14.6833938 C18.1820027,14.9990989 17.8124106,15.7334213 17.9609984,16.4607757 L19.1529197,22.2914032 C19.2644947,22.835981 19.6491066,23.2846145 20.1710415,23.4775752 C20.69244,23.6699998 21.2765994,23.5799515 21.715926,23.2401264 L31.7265627,15.4782845 L23.7983015,25.3246373 C23.4528481,25.7539748 23.3509287,26.3296407 23.5284831,26.8506344 C23.7055011,27.3721642 24.1378542,27.7661255 24.6731996,27.8958379 L30.8586381,29.3923549 C30.9857692,29.422907 31.1123639,29.437379 31.2378857,29.437379 C31.8504753,29.437379 32.4244428,29.0868339 32.6942612,28.51224 L43.0321131,6.50615051 C43.1131122,6.33998996 43.164072,6.16418137 43.1849923,5.98569278 C43.1984027,5.87045239 43.1994756,5.75414 43.1882108,5.64050763 L43.1882108,5.63997162 L43.1882108,5.63889962 C43.1528072,5.28513844 43.0004644,4.94156129 42.734401,4.67088039" id="Fill-1" fill="#0FA2FF"></path>
                    <path d="M40.5568112,17.4281518 C40.3197144,17.9325294 40.2633904,18.5022994 40.3915944,19.0452692 C40.7107632,20.3890256 40.8824171,21.7895983 40.8824171,23.2309071 C40.8824171,33.4036851 32.5094651,41.6222005 22.2746055,41.3815357 C12.6357066,41.155343 4.77449762,33.2997007 4.54759272,23.6688206 C4.30674094,13.4413705 12.5316415,5.07491854 22.7123228,5.07491854 C25.0157026,5.07491854 27.217163,5.50693598 29.2442874,6.28896259 C29.8831615,6.53552341 30.5928428,6.52426737 31.2129423,6.2332184 L34.0452305,4.90500597 C34.5870129,4.65094112 34.619198,3.89303459 34.1020908,3.59287359 C30.6513124,1.58983491 26.6244209,0.468519164 22.3298566,0.5392714 C9.93323162,0.74295208 -0.0956433681,11.0223944 0.000911910969,23.4110037 C0.0985400265,36.0091898 10.4696498,46.1632077 23.1564771,45.9214709 C35.2645091,45.6909901 45.1464055,35.8516053 45.4189059,23.7540449 C45.4966866,20.2995133 44.8009521,17.0159664 43.4942374,14.0636685 C43.2367566,13.4831786 42.4144275,13.4740666 42.1446091,14.0481245 L40.5568112,17.4281518 Z" id="Fill-3" fill="#AAE6FF"></path>
                    <path d="M68.2284277,13.2547882 L68.2284277,19.7484499 C68.2284277,20.2104835 67.9698741,20.4688363 67.5074816,20.4688363 L65.852095,20.4688363 C65.3902389,20.4688363 65.1316853,20.2104835 65.1316853,19.7484499 L65.1316853,13.5812133 C65.1316853,12.287305 64.1173185,11.2742616 62.923788,11.2742616 C61.4931606,11.2742616 60.2771005,12.3660973 60.2771005,14.1215031 L60.2771005,19.7484499 C60.2771005,20.2104835 60.0174741,20.4688363 59.5561544,20.4688363 L57.9002314,20.4688363 C57.4389117,20.4688363 57.1792853,20.2104835 57.1792853,19.7484499 L57.1792853,4.75808788 C57.1792853,4.29659034 57.4389117,4.03823748 57.9002314,4.03823748 L59.5561544,4.03823748 C60.0174741,4.03823748 60.2771005,4.29659034 60.2771005,4.75808788 L60.2771005,10.1154258 C61.0988932,9.12489445 62.2591658,8.5395805 63.5996749,8.5395805 C66.3364807,8.5395805 68.2284277,10.4300588 68.2284277,13.2547882" id="Fill-6" fill="#0FA2FF"></path>
                    <path d="M73.4344201,13.356307 L79.4938003,13.356307 C79.1558568,11.9723504 78.0519082,11.0037951 76.5429637,11.0037951 C75.078542,11.0037951 73.8512171,11.9380462 73.4344201,13.356307 M76.8465764,18.2746594 C78.1870855,18.2746594 79.2234455,17.8914181 80.1584225,17.1603117 C80.5188955,16.8789107 80.8675674,16.8901668 81.1829813,17.2053358 L81.7354921,17.7563457 C82.0616343,18.0827708 82.0841639,18.454756 81.7574852,18.7806451 C80.5408887,19.9400169 78.9874215,20.7386596 76.8583776,20.7386596 C72.871181,20.7386596 70.2244935,18.0495386 70.2244935,14.6394953 C70.2244935,11.2289159 72.9505709,8.5397949 76.5654933,8.5397949 C80.1353565,8.5397949 82.6811974,11.1838917 82.6811974,14.4368866 C82.6811974,14.5832151 82.6699326,14.7520556 82.6581314,14.9091042 C82.6130723,15.3486256 82.3207243,15.5619543 81.8813978,15.5619543 L73.3561031,15.5619543 C73.6259215,17.1828237 74.9776954,18.2746594 76.8465764,18.2746594" id="Fill-8" fill="#0FA2FF"></path>
                    <path d="M85.690289,4.03807668 L87.3456756,4.03807668 C87.8075317,4.03807668 88.0666217,4.29642954 88.0666217,4.75846308 L88.0666217,19.7488251 C88.0666217,20.2103227 87.8075317,20.4686755 87.3456756,20.4686755 L85.690289,20.4686755 C85.2284329,20.4686755 84.9693429,20.2103227 84.9693429,19.7488251 L84.9693429,4.75846308 C84.9693429,4.29642954 85.2284329,4.03807668 85.690289,4.03807668" id="Fill-10" fill="#0FA2FF"></path>
                    <path d="M91.9083417,4.03807668 L93.5637283,4.03807668 C94.0255844,4.03807668 94.2846744,4.29642954 94.2846744,4.75846308 L94.2846744,19.7488251 C94.2846744,20.2103227 94.0255844,20.4686755 93.5637283,20.4686755 L91.9083417,20.4686755 C91.4464856,20.4686755 91.1873956,20.2103227 91.1873956,19.7488251 L91.1873956,4.75846308 C91.1873956,4.29642954 91.4464856,4.03807668 91.9083417,4.03807668" id="Fill-12" fill="#0FA2FF"></path>
                    <path d="M103.058921,18.0044609 C104.973397,18.0044609 106.437819,16.541176 106.437819,14.6394417 C106.437819,12.7484273 104.973397,11.2738864 103.058921,11.2738864 C101.155173,11.2738864 99.6918237,12.7484273 99.6918237,14.6394417 C99.6918237,16.541176 101.155173,18.0044609 103.058921,18.0044609 M103.058921,8.5397413 C106.775763,8.5397413 109.534562,11.2288623 109.534562,14.6394417 C109.534562,18.049485 106.775763,20.739142 103.058921,20.739142 C99.3533438,20.739142 96.5832801,18.049485 96.5832801,14.6394417 C96.5832801,11.2288623 99.3533438,8.5397413 103.058921,8.5397413" id="Fill-14" fill="#0FA2FF"></path>
                    <path d="M62.5824114,39.2137301 C64.496888,39.2137301 65.9613098,37.7504452 65.9613098,35.8487108 C65.9613098,33.9576965 64.496888,32.4831556 62.5824114,32.4831556 C60.6786632,32.4831556 59.2153143,33.9576965 59.2153143,35.8487108 C59.2153143,37.7504452 60.6786632,39.2137301 62.5824114,39.2137301 M62.5824114,29.7490105 C66.2992532,29.7490105 69.0580521,32.4381315 69.0580521,35.8487108 C69.0580521,39.2587542 66.2992532,41.9484112 62.5824114,41.9484112 C58.8768344,41.9484112 56.1067707,39.2587542 56.1067707,35.8487108 C56.1067707,32.4381315 58.8768344,29.7490105 62.5824114,29.7490105" id="Fill-16" fill="#0FA2FF"></path>
                    <path d="M71.0546007,37.2329891 L71.0546007,30.7393274 C71.0546007,30.2772939 71.3136907,30.018941 71.7755468,30.018941 L73.4314698,30.018941 C73.8927895,30.018941 74.1518795,30.2772939 74.1518795,30.7393274 L74.1518795,36.906564 C74.1518795,38.2004723 75.1651735,39.2135157 76.3597769,39.2135157 C77.8231258,39.2135157 79.005928,38.0653998 79.005928,36.2312017 L79.005928,30.7393274 C79.005928,30.2772939 79.265018,30.018941 79.726874,30.018941 L81.3822607,30.018941 C81.8441167,30.018941 82.1032067,30.2772939 82.1032067,30.7393274 L82.1032067,40.9576655 C82.1032067,41.419699 81.8441167,41.6780519 81.3822607,41.6780519 L79.726874,41.6780519 C79.265018,41.6780519 79.005928,41.419699 79.005928,40.9576655 L79.005928,40.3841436 C78.1835988,41.3628828 77.0120614,41.9481968 75.6838899,41.9481968 C72.9465478,41.9481968 71.0546007,40.0577185 71.0546007,37.2329891" id="Fill-18" fill="#0FA2FF"></path>
                    <path d="M90.7778939,39.2587006 C90.8900053,39.2587006 91.013918,39.2587006 91.138367,39.2474446 C91.6222162,39.2356525 91.8813062,39.4720293 91.8813062,39.9447829 L91.8813062,40.867778 C91.8813062,41.2612033 91.734864,41.5656523 91.3518614,41.7007248 C90.9130713,41.8583093 90.3723618,41.9483576 89.8203874,41.9483576 C87.2976125,41.9483576 85.9007795,40.564401 85.9007795,37.8291839 L85.9007795,32.7082228 L84.5828,32.7082228 C84.1214803,32.7082228 83.8618539,32.4498699 83.8618539,31.9883724 L83.8618539,30.7389522 C83.8618539,30.2774547 84.1214803,30.0191018 84.5828,30.0191018 L85.9007795,30.0191018 L85.9007795,27.9029667 C85.9007795,27.4645173 86.1148104,27.2163484 86.5428721,27.1263001 L88.2100599,26.800411 C88.6939092,26.6991067 88.9980583,26.9462035 88.9980583,27.4414692 L88.9980583,30.0191018 L91.0251827,30.0191018 C91.4870388,30.0191018 91.7461288,30.2774547 91.7461288,30.7389522 L91.7461288,31.9883724 C91.7461288,32.4498699 91.4870388,32.7082228 91.0251827,32.7082228 L88.9980583,32.7082228 L88.9980583,37.6383672 C88.9980583,38.7521789 89.4824439,39.2587006 90.7778939,39.2587006" id="Fill-20" fill="#0FA2FF"></path>
                    <path d="M97.0640717,35.4993985 L97.0640717,40.9580407 C97.0640717,41.4195382 96.8055182,41.6778911 96.3431257,41.6778911 L94.687739,41.6778911 C94.225883,41.6778911 93.9673294,41.4195382 93.9673294,40.9580407 L93.9673294,30.7391666 C93.9673294,30.2776691 94.225883,30.0187802 94.687739,30.0187802 L96.3431257,30.0187802 C96.8055182,30.0187802 97.0640717,30.2776691 97.0640717,30.7391666 L97.0640717,31.447761 C97.8075474,30.4577657 98.843371,29.7486353 100.18388,29.7486353 C100.341051,29.7486353 100.499294,29.7604273 100.645736,29.7936594 C101.061997,29.8724517 101.231505,30.2106688 101.197174,30.6266062 L101.096327,31.9323066 C101.051268,32.4163162 100.758384,32.5964128 100.262734,32.5176205 C100.093762,32.4951085 99.9360549,32.4833164 99.7896127,32.4833164 C98.3031978,32.4833164 97.0640717,33.6877124 97.0640717,35.4993985" id="Fill-22" fill="#0FA2FF"></path>
                    <path d="M105.343419,34.5655762 L111.402799,34.5655762 C111.064855,33.1816195 109.960907,32.2130643 108.451962,32.2130643 C106.987541,32.2130643 105.759679,33.1473154 105.343419,34.5655762 M108.756111,39.4839286 C110.096084,39.4839286 111.132444,39.1006873 112.066885,38.3695809 C112.427358,38.0881799 112.776566,38.099436 113.09198,38.414605 L113.643954,38.9656148 C113.970633,39.2920399 113.993162,39.6640252 113.66702,39.9899143 C112.450424,41.1492861 110.895884,41.9479288 108.767376,41.9479288 C104.78018,41.9479288 102.134029,39.2588078 102.134029,35.8487644 C102.134029,32.4381851 104.859033,29.7490641 108.474492,29.7490641 C112.044891,29.7490641 114.58966,32.3931609 114.58966,35.6461558 C114.58966,35.7924843 114.578931,35.9613248 114.567666,36.1183733 C114.522607,36.5578948 114.229186,36.7712235 113.790396,36.7712235 L105.264565,36.7712235 C105.534384,38.3920929 106.886158,39.4839286 108.756111,39.4839286" id="Fill-24" fill="#0FA2FF"></path>
                    <path d="M122.352704,39.2137301 C124.154533,39.2137301 125.573895,37.7504452 125.573895,35.8487108 C125.573895,33.9576965 124.154533,32.4831556 122.352704,32.4831556 C120.561604,32.4831556 119.165307,33.9576965 119.165307,35.8487108 C119.165307,37.7504452 120.561604,39.2137301 122.352704,39.2137301 M121.688082,29.7490105 C123.321475,29.7490105 124.639455,30.3793486 125.573895,31.414368 L125.573895,30.7390058 C125.573895,30.2775083 125.832449,30.0191554 126.294841,30.0191554 L127.916434,30.0191554 C128.37829,30.0191554 128.63738,30.2775083 128.63738,30.7390058 L128.63738,40.9578799 C128.63738,41.4193774 128.37829,41.6782663 127.916434,41.6782663 L126.294841,41.6782663 C125.832449,41.6782663 125.573895,41.4193774 125.573895,40.9578799 L125.573895,40.2825176 C124.639455,41.3180731 123.321475,41.9484112 121.688082,41.9484112 C118.433096,41.9484112 116.056763,39.2587542 116.056763,35.8487108 C116.056763,32.4381315 118.433096,29.7490105 121.688082,29.7490105" id="Fill-26" fill="#0FA2FF"></path>
                    <path d="M142.064518,39.2807303 C140.904782,41.0591842 139.271388,41.9484112 137.232999,41.9484112 C133.527958,41.9484112 130.870006,39.2587542 130.870006,35.8487108 C130.870006,32.4381315 133.527958,29.7490105 137.007703,29.7490105 C139.654927,29.7490105 141.558139,31.0316628 142.448057,33.1134937 C142.650287,33.5975033 142.379932,33.9351845 141.851023,33.9351845 L139.93601,33.9351845 C139.541743,33.9351845 139.316447,33.7668799 139.080423,33.4286628 C138.64056,32.8433488 137.94268,32.4831556 137.007703,32.4831556 C135.329787,32.4831556 133.97855,33.9576965 133.97855,35.8487108 C133.97855,37.7504452 135.329787,39.2137301 137.345647,39.2137301 C138.517184,39.2137301 139.51975,38.7404405 140.307748,37.9530539 C140.634427,37.6153727 140.961106,37.5703486 141.321579,37.8517495 L141.873553,38.279479 C142.23349,38.5603439 142.312879,38.898561 142.064518,39.2807303" id="Fill-28" fill="#0FA2FF"></path>
                    <path d="M156.010319,34.4640038 L156.010319,40.9576655 C156.010319,41.419699 155.751765,41.6780519 155.289373,41.6780519 L153.633986,41.6780519 C153.17213,41.6780519 152.913576,41.419699 152.913576,40.9576655 L152.913576,34.7904289 C152.913576,33.4965206 151.899209,32.4834772 150.705679,32.4834772 C149.275051,32.4834772 148.058991,33.5753129 148.058991,35.3307187 L148.058991,40.9576655 C148.058991,41.419699 147.799365,41.6780519 147.338045,41.6780519 L145.682122,41.6780519 C145.220803,41.6780519 144.961176,41.419699 144.961176,40.9576655 L144.961176,25.9673035 C144.961176,25.5058059 145.220803,25.2474531 145.682122,25.2474531 L147.338045,25.2474531 C147.799365,25.2474531 148.058991,25.5058059 148.058991,25.9673035 L148.058991,31.3246413 C148.880784,30.33411 150.041057,29.7487961 151.381566,29.7487961 C154.118372,29.7487961 156.010319,31.6392744 156.010319,34.4640038" id="Fill-30" fill="#0FA2FF"></path>
                </g>
            </g>
        </g>
    </g>
</svg>